<?xml version="1.0" encoding="UTF-8" standalone="no"?>
<!-- Svg Vector Icons : http://www.onlinewebfonts.com/icon -->

<svg
   version="1.1"
   x="0px"
   y="0px"
   viewBox="0 0 1000 1000"
   enable-background="new 0 0 1000 1000"
   xml:space="preserve"
   id="svg40"
   sodipodi:docname="minimiza.svg"
   inkscape:version="1.1.1 (3bf5ae0d25, 2021-09-20)"
   xmlns:inkscape="http://www.inkscape.org/namespaces/inkscape"
   xmlns:sodipodi="http://sodipodi.sourceforge.net/DTD/sodipodi-0.dtd"
   xmlns="http://www.w3.org/2000/svg"
   xmlns:svg="http://www.w3.org/2000/svg"><defs
   id="defs44" /><sodipodi:namedview
   id="namedview42"
   pagecolor="#505050"
   bordercolor="#ffffff"
   borderopacity="1"
   inkscape:pageshadow="0"
   inkscape:pageopacity="0"
   inkscape:pagecheckerboard="1"
   showgrid="false"
   inkscape:zoom="0.873"
   inkscape:cx="500"
   inkscape:cy="500"
   inkscape:window-width="2560"
   inkscape:window-height="1377"
   inkscape:window-x="-8"
   inkscape:window-y="-8"
   inkscape:window-maximized="1"
   inkscape:current-layer="svg40" />
<metadata
   id="metadata2"> Svg Vector Icons : http://www.onlinewebfonts.com/icon </metadata>
<path
   d="m 990,580.4 v 302.8 c 0,58.9 -48,106.9 -106.9,106.9 H 116.9 C 58,990.1 10,942.2 10,883.2 V 117.9 C 10,59 58,11 116.9,11 h 297.8 c -18.4,18.9 -26.85943,67.006117 -29.41886,93.26403 H 136.8419 c -18.5796,0 -33.65184,15.07223 -33.65184,33.55705 v 725.45784 c 0,18.48482 15.07224,33.55705 33.65184,33.55705 h 726.2162 c 18.5796,0 33.65184,-15.07223 33.65184,-33.55705 V 609.69283 C 922.2095,607.32299 970.4,599.5 990,580.4 Z M 824.9,479.6 H 591.3 L 969.5,101.4 c 20.9,-20.9 20.9,-54.9 0,-75.8 -20.9,-20.9 -54.9,-20.9 -75.8,0 L 515.5,403.8 V 170.1 c 0,-29.6 -24,-53.6 -53.6,-53.6 -14.8,0 -28.2,6 -37.9,15.7 -9.7,9.7 -15.7,23.1 -15.7,37.9 v 363 c 0,29.6 24,53.6 53.6,53.6 h 363 c 29.6,0 53.6,-24 53.6,-53.6 0,-29.6 -24,-53.5 -53.6,-53.5 z"
   id="path4"
   sodipodi:nodetypes="cssssssccssssssccscssscsssssssss" /><g
   id="g8" /><g
   id="g10" /><g
   id="g12" /><g
   id="g14" /><g
   id="g16" /><g
   id="g18" /><g
   id="g20" /><g
   id="g22" /><g
   id="g24" /><g
   id="g26" /><g
   id="g28" /><g
   id="g30" /><g
   id="g32" /><g
   id="g34" /><g
   id="g36" />
</svg>
